<svg viewBox="0 0 16 16" fill="none" xmlns="http://www.w3.org/2000/svg">
    <path d="M2.75 8.49828C2.75 8.63635 2.86193 8.74828 3 8.74828C3.13807 8.74828 3.25 8.63635 3.25 8.49828L2.75 8.49828ZM13.1768 4.67505C13.2744 4.57742 13.2744 4.41913 13.1768 4.3215L11.5858 2.73051C11.4882 2.63288 11.3299 2.63288 11.2322 2.73051C11.1346 2.82814 11.1346 2.98643 11.2322 3.08406L12.6464 4.49828L11.2322 5.91249C11.1346 6.01012 11.1346 6.16841 11.2322 6.26604C11.3299 6.36367 11.4882 6.36367 11.5858 6.26604L13.1768 4.67505ZM5 4.49828L5 4.74828L5 4.49828ZM3.25 8.49828L3.25 6.49828L2.75 6.49828L2.75 8.49828L3.25 8.49828ZM5 4.74828L13 4.74828L13 4.24828L5 4.24828L5 4.74828ZM3.25 6.49828C3.25 5.53178 4.0335 4.74828 5 4.74828L5 4.24828C3.75736 4.24828 2.75 5.25564 2.75 6.49828L3.25 6.49828Z" />
    <path d="M13.2501 7.5017C13.2501 7.36363 13.1382 7.25169 13.0001 7.25169C12.862 7.25169 12.7501 7.36361 12.7501 7.50168L13.2501 7.5017ZM2.82322 11.3247C2.72559 11.4223 2.72558 11.5806 2.82321 11.6782L4.41416 13.2692C4.51179 13.3669 4.67008 13.3669 4.76772 13.2693C4.86535 13.1716 4.86535 13.0133 4.76772 12.9157L3.35355 11.5015L4.76779 10.0873C4.86543 9.98964 4.86543 9.83135 4.7678 9.73372C4.67017 9.63609 4.51188 9.63608 4.41425 9.73371L2.82322 11.3247ZM11 11.5016L11 11.2516L11 11.5016ZM12.7501 7.50168L12.75 9.50168L13.25 9.50169L13.2501 7.5017L12.7501 7.50168ZM11 11.2516L3 11.2514L2.99999 11.7514L11 11.7516L11 11.2516ZM12.75 9.50168C12.75 10.4682 11.9665 11.2517 11 11.2516L11 11.7516C12.2426 11.7517 13.25 10.7443 13.25 9.50169L12.75 9.50168Z" />
</svg>
