<svg width="16" height="16" viewBox="0 0 16 16" fill="none" xmlns="http://www.w3.org/2000/svg">
<rect width="16" height="16" fill="white"/>
<path d="M7.2 1.25H8.8C8.9933 1.25 9.15 1.4067 9.15 1.6V2.02918C9.15 2.35114 9.3319 2.64546 9.61987 2.78944L11.8199 3.88944C12.0592 4.00909 12.3408 4.00909 12.5801 3.88944L13.1751 3.59194C13.348 3.50549 13.5583 3.57557 13.6447 3.74846L14.5081 5.47515C14.5945 5.64804 14.5244 5.85828 14.3515 5.94472L13.8199 6.21056C13.5319 6.35454 13.35 6.64886 13.35 6.97082V9.02918C13.35 9.35114 13.5319 9.64546 13.8199 9.78945L14.3515 10.0553C14.5244 10.1417 14.5945 10.352 14.5081 10.5249L13.6447 12.2515C13.5583 12.4244 13.348 12.4945 13.1751 12.4081L12.5801 12.1106C12.3408 11.9909 12.0592 11.9909 11.8199 12.1106L9.61987 13.2106C9.3319 13.3545 9.15 13.6489 9.15 13.9708V14.4C9.15 14.5933 8.9933 14.75 8.8 14.75H7.2C7.0067 14.75 6.85 14.5933 6.85 14.4V13.9708C6.85 13.6489 6.6681 13.3545 6.38013 13.2106L4.18013 12.1106C3.94083 11.9909 3.65917 11.9909 3.41987 12.1106L2.82485 12.4081C2.65196 12.4945 2.44172 12.4244 2.35528 12.2515L1.49193 10.5249C1.40549 10.352 1.47557 10.1417 1.64846 10.0553L2.18013 9.78945C2.4681 9.64546 2.65 9.35114 2.65 9.02918V6.97082C2.65 6.64886 2.4681 6.35454 2.18013 6.21056L1.64846 5.94472C1.47557 5.85828 1.40549 5.64804 1.49194 5.47515L2.35528 3.74846C2.44172 3.57557 2.65196 3.50549 2.82485 3.59194L3.41987 3.88944C3.65917 4.00909 3.94083 4.00909 4.18013 3.88944L6.38013 2.78944C6.6681 2.64546 6.85 2.35114 6.85 2.02918V1.6C6.85 1.4067 7.0067 1.25 7.2 1.25Z" stroke="black" stroke-width="0.5"/>
<circle cx="8" cy="8" r="2.25" stroke="black" stroke-width="0.5"/>
</svg>
