<svg viewBox="0 0 16 16" fill="none" xmlns="http://www.w3.org/2000/svg">
    <path d="M-1.35052 8.51246L-1.35 8.5125V8.5V7C-1.35 6.53056 -0.969442 6.15 -0.5 6.15H-0.280776C0.246922 6.15 0.706902 5.79086 0.834888 5.27892L1.02425 4.52145C1.07883 4.30315 1.27498 4.15 1.5 4.15C1.72502 4.15 1.92117 4.30315 1.97575 4.52145L2.23321 5.55131C2.32117 5.90316 2.63732 6.15 3 6.15C3.36268 6.15 3.67883 5.90316 3.76679 5.55131L4.02052 4.53638C4.07713 4.30993 4.28305 4.15 4.51777 4.15C4.74045 4.15 4.93944 4.29267 5.00949 4.50282L5.66258 6.46207C5.79908 6.87159 6.05104 7.23292 6.38811 7.50258C7.50139 8.3932 9.15242 8.03058 9.79 6.7554L10.3578 5.61987C10.5018 5.3319 10.7961 5.15 11.118 5.15H11.5858C11.8112 5.15 12.0274 5.23955 12.1868 5.39896L12.2505 5.46264L12.3566 5.35658L12.2505 5.46264C12.3636 5.57572 12.5053 5.65593 12.6604 5.69472L13.7239 5.9606C14.1295 6.06199 14.094 6.64958 13.6792 6.70143C12.8753 6.80191 12.155 7.24714 11.7056 7.92119L11.0961 8.83538C10.6592 9.49084 9.97038 9.9362 9.19333 10.0657L8.49407 10.1823C7.85325 10.2891 7.42805 10.9051 7.55546 11.5421L7.83117 12.9207C7.84779 13.0038 7.87354 13.0848 7.90796 13.1622L9.43461 16.5972C9.59196 16.9512 9.33281 17.35 8.9454 17.35C8.73383 17.35 8.5421 17.2254 8.45618 17.0321L6.63707 12.9391L6.63721 12.939L6.63416 12.9329L5.91056 11.4857C5.71576 11.0961 5.31755 10.85 4.88197 10.85H4.78078C4.25308 10.85 3.7931 11.2091 3.66511 11.7211L3.35448 12.9636L3.35203 12.9734L3.35092 12.9834L2.90307 17.014C2.88182 17.2053 2.72015 17.35 2.52769 17.35C2.3191 17.35 2.15 17.1809 2.15 16.9723V13V11.1623C2.15 10.7022 1.8556 10.2938 1.41914 10.1483C0.85912 9.96159 0.253802 10.2643 0.0671282 10.8243L-1.01621 14.0743C-1.07109 14.2389 -1.22518 14.35 -1.39875 14.35C-1.63465 14.35 -1.82018 14.1484 -1.80059 13.9133L-1.35052 8.51246Z" stroke="black" stroke-width="0.3"/>
    <rect width="0.3" height="16" fill="black"/>
    <rect width="16" height="0.3" transform="translate(0 15.7)" fill="black"/>
</svg>
