<svg width="16" height="16" viewBox="0 0 16 16" fill="none" xmlns="http://www.w3.org/2000/svg">
<rect width="16" height="16" fill="white"/>
<path d="M3 3.25H6.09153C6.24226 3.25 6.38949 3.29542 6.51403 3.38033L7.1043 3.78278C7.31186 3.9243 7.55725 4 7.80847 4H12C12.4142 4 12.75 4.33579 12.75 4.75V11C12.75 11.4142 12.4142 11.75 12 11.75H3C2.58579 11.75 2.25 11.4142 2.25 11V4C2.25 3.58579 2.58579 3.25 3 3.25Z" stroke="black" stroke-width="0.5"/>
<path d="M12.0665 11.75H3.20269C2.63029 11.75 2.26887 11.1346 2.54767 10.6347L4.77844 6.6347C4.91089 6.3972 5.16152 6.25 5.43346 6.25H14.2973C14.8697 6.25 15.2311 6.86538 14.9523 7.3653L12.7216 11.3653C12.5891 11.6028 12.3385 11.75 12.0665 11.75Z" fill="white" stroke="black" stroke-width="0.5"/>
</svg>
