<svg viewBox="0 0 16 16" fill="none" xmlns="http://www.w3.org/2000/svg">
    <path d="M7.98673 12.144C7.38273 12.144 6.83273 11.982 6.33673 11.658C5.84073 11.33 5.44473 10.856 5.14873 10.236C4.85673 9.616 4.71073 8.864 4.71073 7.98C4.71073 7.312 4.80273 6.702 4.98673 6.15C5.17073 5.598 5.42273 5.122 5.74273 4.722C6.06673 4.318 6.43673 4.006 6.85273 3.786C7.26873 3.566 7.70673 3.456 8.16673 3.456C8.77873 3.456 9.31873 3.606 9.78673 3.906C10.2547 4.206 10.6187 4.626 10.8787 5.166C11.1427 5.702 11.2747 6.328 11.2747 7.044C11.2747 7.632 11.2047 8.154 11.0647 8.61C10.9287 9.066 10.7447 9.426 10.5127 9.69C10.2807 9.95 10.0227 10.08 9.73873 10.08C9.48273 10.08 9.27873 9.998 9.12673 9.834C8.97873 9.666 8.88273 9.444 8.83873 9.168C8.70673 9.48 8.53873 9.728 8.33473 9.912C8.13473 10.096 7.90273 10.188 7.63873 10.188C7.37873 10.188 7.14473 10.1 6.93673 9.924C6.73273 9.748 6.57073 9.506 6.45073 9.198C6.33073 8.886 6.27073 8.532 6.27073 8.136C6.27073 7.748 6.34073 7.364 6.48073 6.984C6.62473 6.6 6.82673 6.282 7.08673 6.03C7.35073 5.778 7.66273 5.652 8.02273 5.652C8.29873 5.652 8.52873 5.752 8.71273 5.952C8.90073 6.148 9.01873 6.432 9.06673 6.804L9.19873 5.808H9.79873L9.41473 8.592C9.41073 8.628 9.40673 8.666 9.40273 8.706C9.40273 8.742 9.40273 8.776 9.40273 8.808C9.40273 9 9.44073 9.15 9.51673 9.258C9.59673 9.366 9.70273 9.42 9.83473 9.42C10.0067 9.42 10.1587 9.316 10.2907 9.108C10.4227 8.896 10.5247 8.608 10.5967 8.244C10.6727 7.876 10.7107 7.46 10.7107 6.996C10.7107 6.344 10.5887 5.8 10.3447 5.364C10.1007 4.924 9.78673 4.594 9.40273 4.374C9.01873 4.154 8.61473 4.044 8.19073 4.044C7.63473 4.044 7.14073 4.216 6.70873 4.56C6.27673 4.904 5.93673 5.374 5.68873 5.97C5.44473 6.566 5.32273 7.24 5.32273 7.992C5.32273 8.648 5.42873 9.246 5.64073 9.786C5.85673 10.326 6.16473 10.756 6.56473 11.076C6.96873 11.396 7.45473 11.556 8.02273 11.556C8.25073 11.556 8.48873 11.536 8.73673 11.496C8.98873 11.456 9.19873 11.4 9.36673 11.328L9.23473 11.964C9.06273 12.024 8.86873 12.068 8.65273 12.096C8.43673 12.128 8.21473 12.144 7.98673 12.144ZM7.81873 9.516C8.03873 9.516 8.23073 9.434 8.39473 9.27C8.56273 9.102 8.69273 8.88 8.78473 8.604C8.87673 8.328 8.92273 8.024 8.92273 7.692C8.92273 7.276 8.83673 6.944 8.66473 6.696C8.49673 6.448 8.29873 6.324 8.07073 6.324C7.83473 6.324 7.63273 6.408 7.46473 6.576C7.29673 6.744 7.16673 6.966 7.07473 7.242C6.98673 7.518 6.94273 7.82 6.94273 8.148C6.94273 8.568 7.02073 8.902 7.17673 9.15C7.33673 9.394 7.55073 9.516 7.81873 9.516Z" />
</svg>
