<svg width="16" height="16" viewBox="0 0 16 16" fill="none" xmlns="http://www.w3.org/2000/svg">
<rect width="16" height="16" fill="white"/>
<path d="M3 2.25H9C11.6234 2.25 13.75 4.37665 13.75 7V13C13.75 13.4142 13.4142 13.75 13 13.75H3C2.58579 13.75 2.25 13.4142 2.25 13V3C2.25 2.58579 2.58579 2.25 3 2.25Z" stroke="black" stroke-width="0.5"/>
<path d="M5 8.25H11C11.4142 8.25 11.75 8.58579 11.75 9V13.75H4.25V9C4.25 8.58579 4.58579 8.25 5 8.25Z" stroke="black" stroke-width="0.5"/>
<path d="M5.25 2.25H9.75V4C9.75 4.41421 9.41421 4.75 9 4.75H6C5.58579 4.75 5.25 4.41421 5.25 4V2.25Z" stroke="black" stroke-width="0.5"/>
</svg>
